<?xml version="1.0" encoding="utf-8"?>
<!-- Generator: Adobe Illustrator 22.0.1, SVG Export Plug-In . SVG Version: 6.00 Build 0)  -->
<svg version="1.1"
	 id="svg1365" xmlns:cc="http://creativecommons.org/ns#" xmlns:dc="http://purl.org/dc/elements/1.1/" xmlns:rdf="http://www.w3.org/1999/02/22-rdf-syntax-ns#" xmlns:svg="http://www.w3.org/2000/svg"
	 xmlns="http://www.w3.org/2000/svg" xmlns:xlink="http://www.w3.org/1999/xlink" x="0px" y="0px" viewBox="0 0 95 94.2"
	 style="enable-background:new 0 0 95 94.2;" xml:space="preserve">
<style type="text/css">
	.st0{clip-path:url(#SVGID_2_);}
	.st1{fill:#826550;}
</style>
<g id="g1373" transform="matrix(1.3333333,0,0,-1.3333333,0,125.55147)">
	<g id="g1375">
		<g>
			<defs>
				<rect id="SVGID_1_" x="-11.9" y="11.7" width="95" height="94.2"/>
			</defs>
			<clipPath id="SVGID_2_">
				<use xlink:href="#SVGID_1_"  style="overflow:visible;"/>
			</clipPath>
			<g id="g1377" class="st0">
				<g id="g1383" transform="translate(90.2842,65.7739)">
					<path id="path1385" class="st1" d="M-22.5,7.1c-1.6,3.6-3.7,6.9-6.4,9.8c-0.5-0.9-1-1.9-1.5-2.8c1.9-2.3,3.6-4.8,4.8-7.5
						C-24.6,6.7-23.6,6.9-22.5,7.1"/>
				</g>
				<g id="g1387" transform="translate(90.0088,50.5991)">
					<path id="path1389" class="st1" d="M-22.5,10.9c0.1-0.9,0.1-1.8,0.1-2.6c0-17.9-14.5-32.3-32.3-32.3c-0.6,0-1.2,0-1.8,0
						c0.1-0.4,0.2-0.9,0.2-1.4c0-0.6-0.1-1.1-0.3-1.6c0.6,0,1.3-0.1,1.9-0.1c19.5,0,35.3,15.8,35.3,35.3c0,1.6-0.1,3.1-0.3,4.6
						C-20.5,12.1-21.5,11.5-22.5,10.9"/>
				</g>
				<g id="g1391" transform="translate(4,47.0815)">
					<path id="path1393" class="st1" d="M-1,11.7c0,17.9,14.5,32.3,32.3,32.3c5.9,0,11.4-1.6,16.2-4.3c0.8,0.6,1.7,1.3,2.5,2
						c-5.4,3.4-11.8,5.4-18.7,5.4C11.9,47.1-4,31.2-4,11.7c0-14.9,9.2-27.6,22.3-32.8c-0.3,1.1-0.4,2.3-0.4,3.4
						C6.7-12.5-1-1.3-1,11.7"/>
				</g>
				<g id="g1395" transform="translate(36.7871,19.1699)">
					<path id="path1397" class="st1" d="M-9.2,18.7c-1.4,6.8,5.3,12.7,8.9,6.9C-0.1,20.1-4.9,13.8-9.2,18.7 M-1.5,40.4
						c1.1,0,1.9-0.9,1.9-1.9s-0.9-1.9-1.9-1.9s-1.9,0.9-1.9,1.9S-2.5,40.4-1.5,40.4 M-7.7,11.3c5.8,2,12.2,7.3,10.9,14.9
						c-0.7,3.9-3.4,3.8-5.5,6.9c10.8,9,18.2,21.5,24.8,34.7h-1.5C15.5,63.6,4.6,55.1-0.3,48c-2-2.8-3.4-7-5.5-10.4
						c-3.4-5.8-11.3-15.9-5-23.3c-1-3.5-0.9-9.3,3-9.4C-5.2,6.1-8.7,8.3-7.7,11.3"/>
				</g>
				<g id="g1399" transform="translate(55.9526,42.9609)">
					<path id="path1401" class="st1" d="M-14,12.8C-3.5,16.7,9,18.6,15.3,26.7c-7.1-1-13.6-2.6-20.8-3.5
						C-7.1,18.5-10.8,15.9-14,12.8"/>
				</g>
				<g id="g1403" transform="translate(17.6221,46.9263)">
					<path id="path1405" class="st1" d="M-4.4,11.8c-3.8,8.1,9.7,8.3,10.9,4C8.1,10-0.3,9.7-4.4,11.8 M-8.4,17.2
						C-11.5,8.1-2,5.2,8,6.8c2.8,3.6,4.4,7.5,1.5,11.9C5.8,24.3-6.2,23.5-8.4,17.2"/>
				</g>
			</g>
		</g>
	</g>
</g>
</svg>
