<?xml version="1.0" encoding="utf-8"?>
<!-- Generator: Adobe Illustrator 22.0.1, SVG Export Plug-In . SVG Version: 6.00 Build 0)  -->
<svg version="1.1"
	 id="svg1437" xmlns:cc="http://creativecommons.org/ns#" xmlns:dc="http://purl.org/dc/elements/1.1/" xmlns:rdf="http://www.w3.org/1999/02/22-rdf-syntax-ns#" xmlns:svg="http://www.w3.org/2000/svg"
	 xmlns="http://www.w3.org/2000/svg" xmlns:xlink="http://www.w3.org/1999/xlink" x="0px" y="0px" viewBox="0 0 95 92.8"
	 style="enable-background:new 0 0 95 92.8;" xml:space="preserve">
<style type="text/css">
	.st0{clip-path:url(#SVGID_2_);}
	.st1{fill:#826550;}
</style>
<g id="g1445" transform="matrix(1.3333333,0,0,-1.3333333,0,122.65493)">
	<g id="g1447">
		<g>
			<defs>
				<rect id="SVGID_1_" x="-11.9" y="10.8" width="95" height="92.8"/>
			</defs>
			<clipPath id="SVGID_2_">
				<use xlink:href="#SVGID_1_"  style="overflow:visible;"/>
			</clipPath>
			<g id="g1449" class="st0">
				<g id="g1455" transform="translate(47.082,83.8184)">
					<path id="path1457" class="st1" d="M-11.5,2c3.8,0,6.9-3.1,6.9-6.9s-3.1-6.9-6.9-6.9s-6.9,3.1-6.9,6.9S-15.3,2-11.5,2"/>
				</g>
				<g id="g1459" transform="translate(60.501,38.8232)">
					<path id="path1461" class="st1" d="M-14.7,12.9L-35-7.4V4l20.3,20.3V12.9z M-14.7-8.8h-10.2l10.2,10.2V-8.8z M-35,25.6h10
						l-10-10V25.6z M-9.5,33.2h-15.4h-15.4c-1.2,0-2.1-1-2.1-2.1v-3.4c0-1.2,1-2.1,2.1-2.1h0.6V-8.8h-0.6c-1.2,0-2.1-1-2.1-2.1v-3.4
						c0-1.2,1-2.1,2.1-2.1h30.8c1.2,0,2.1,1,2.1,2.1v3.4c0,1.2-1,2.1-2.1,2.1h-0.6v34.3h0.6c1.2,0,2.1,1,2.1,2.1v3.4
						C-7.3,32.2-8.3,33.2-9.5,33.2"/>
				</g>
				<g id="g1463" transform="translate(47.0811,91.9912)">
					<path id="path1465" class="st1" d="M-11.5,0c-19.7,0-35.6-15.9-35.6-35.6c0-11.7,5.6-22,14.3-28.5v0.1c0,1.1,0.3,2.2,0.9,3.1
						c-7.4,6-12.2,15.1-12.2,25.4c0,18,14.6,32.6,32.6,32.6c18,0,32.6-14.6,32.6-32.6C21.1-45.9,16.4-55,9-61c0.6-0.9,0.9-2,0.9-3.1
						v-0.1c8.7,6.5,14.3,16.9,14.3,28.5C24.2-15.9,8.2,0-11.5,0"/>
				</g>
			</g>
		</g>
	</g>
</g>
</svg>
