<?xml version="1.0" encoding="utf-8"?>
<!-- Generator: Adobe Illustrator 22.0.1, SVG Export Plug-In . SVG Version: 6.00 Build 0)  -->
<svg version="1.1"
	 id="svg1407" xmlns:cc="http://creativecommons.org/ns#" xmlns:dc="http://purl.org/dc/elements/1.1/" xmlns:rdf="http://www.w3.org/1999/02/22-rdf-syntax-ns#" xmlns:svg="http://www.w3.org/2000/svg"
	 xmlns="http://www.w3.org/2000/svg" xmlns:xlink="http://www.w3.org/1999/xlink" x="0px" y="0px" viewBox="0 0 95 89.4"
	 style="enable-background:new 0 0 95 89.4;" xml:space="preserve">
<style type="text/css">
	.st0{clip-path:url(#SVGID_2_);}
	.st1{fill:#826550;}
</style>
<g id="g1415" transform="matrix(1.3333333,0,0,-1.3333333,0,118.16013)">
	<g id="g1417">
		<g>
			<defs>
				<rect id="SVGID_1_" x="-11.9" y="10.4" width="95" height="89.4"/>
			</defs>
			<clipPath id="SVGID_2_">
				<use xlink:href="#SVGID_1_"  style="overflow:visible;"/>
			</clipPath>
			<g id="g1419" class="st0">
				<g id="g1425" transform="translate(87.1895,66.1963)">
					<path id="path1427" class="st1" d="M-21.2,5.5c-0.4-1.3-0.9-2.6-1.3-4c2.2-4.4,3.5-9.4,3.5-14.7c0-10.8-5.3-20.3-13.3-26.3
						c0.9-0.5,1.7-1.2,2.4-2c8.5,6.5,14,16.8,14,28.3C-15.9-6.4-17.9,0-21.2,5.5"/>
				</g>
				<g id="g1429" transform="translate(9.5161,18.2832)">
					<path id="path1431" class="st1" d="M-2.3,17.1c0.3,0,0.7,0,1,0c-3.3,5.1-5.2,11.1-5.2,17.6c0,18,14.6,32.6,32.6,32.6
						c5.1,0,10-1.2,14.3-3.3c0.5,0.9,1.2,1.7,1.8,2.5c-4.9,2.5-10.3,3.9-16.2,3.9c-19.7,0-35.6-16-35.6-35.6
						c0-6.4,1.7-12.5,4.7-17.7C-3.9,17.1-3.1,17.1-2.3,17.1"/>
				</g>
				<g id="g1433" transform="translate(37.6699,41.4346)">
					<path id="path1435" class="st1" d="M-9.2,11.5c0.5,8.9,11.6,8.8,19.4,6.5c0.1-3.6-0.4-7.7,1-10C5.9,8.6-1.7,11.3-9.2,11.5
						 M2.8-14.9C3.1-10.2,2.1-4.3,3.3-0.5c3.4,0.1,7.2-0.3,10,0.5c6.2,11.2,9.1,25.7,13.9,38.3v2c-0.5,2.3-2.8,2.8-5,3.5h-0.5
						c-8-2.6-9-12.2-10.9-20.9c-12,3.1-24.4,0-24.9-11.4c-3.4-0.1-6-0.9-7.5-3c-0.4-5.1,1.2-8.1,5-9c-0.9-4-2.8-7.2-5.5-9.5
						c-4.8-0.5-11.8,1.2-14.4-1.5v-2c2.4-2.9,9.7-0.9,14.4-1.5c5,3,6.4,9.5,9,14.9c3.5-0.3,8.2,0.6,10.9-0.5v-14.9
						c-5.9-0.4-11.7-0.9-14.4-4.5h33.8C14.7-15.9,7.8-16.4,2.8-14.9"/>
				</g>
			</g>
		</g>
	</g>
</g>
</svg>
