<?xml version="1.0" encoding="utf-8"?>
<!-- Generator: Adobe Illustrator 22.0.1, SVG Export Plug-In . SVG Version: 6.00 Build 0)  -->
<svg version="1.1"
	 id="svg5210" xmlns:cc="http://creativecommons.org/ns#" xmlns:dc="http://purl.org/dc/elements/1.1/" xmlns:rdf="http://www.w3.org/1999/02/22-rdf-syntax-ns#" xmlns:svg="http://www.w3.org/2000/svg"
	 xmlns="http://www.w3.org/2000/svg" xmlns:xlink="http://www.w3.org/1999/xlink" x="0px" y="0px" viewBox="0 0 57.1 68"
	 style="enable-background:new 0 0 57.1 68;" xml:space="preserve">
<style type="text/css">
	.st0{clip-path:url(#SVGID_2_);fill:#826550;}
</style>
<g id="g5218" transform="matrix(1.3333333,0,0,-1.3333333,0,91.519467)">
	<g id="g5220">
		<g>
			<defs>
				<rect id="SVGID_1_" x="-7.1" y="9.1" width="57.1" height="68"/>
			</defs>
			<clipPath id="SVGID_2_">
				<use xlink:href="#SVGID_1_"  style="overflow:visible;"/>
			</clipPath>
			<g id="g5222" class="st0">
				<g id="g5228" transform="translate(28.8418,42.6943)">
					<path id="path5230" d="M-7.4,6.7L-7.4,6.7c-1.9,0-3.8,0.1-5.3,0.4c0.5,1.5,3,1.2,5.3,1.2h0.1h0.1c2.3,0,4.8,0.4,5.3-1.2
						C-3.6,6.7-5.5,6.6-7.4,6.7 M9.5,9.5c0.1,1.3,0.4,2.6,0.5,4c0.5,4,1.2,8.7-0.1,12.5H9.8c-1-2.8-0.9-6.2-1.6-9.2
						c-0.5-2.2-1.3-4.2-2.4-5.6C5.4,10.6,5,10,4.3,9.8c-0.5,2.9-3.2,3.7-5.7,4.7c-1.6,0.7-3,1.5-4.5,1.6C-6.5,16.2-7,16-7.4,16
						c-0.4,0-0.9,0.2-1.5,0.2c-1.6-0.1-3-0.9-4.5-1.6c-2.5-1.1-5.2-1.8-5.7-4.7c-0.6,0.2-1,0.8-1.4,1.3c-1.1,1.4-1.9,3.4-2.4,5.6
						c-0.7,3-0.6,6.4-1.6,9.2h-0.2c-1.3-3.8-0.6-8.5-0.1-12.5c0.2-1.4,0.4-2.8,0.5-4c0.6-8.2-5.2-17.2-4.5-21.5
						c0.7-5.6,6.2-7,10.5-9.2c3.2-1.7,6.2-3.7,9.9-3.8h0.9h0h0.9c3.7,0.2,6.7,2.2,9.9,3.8C7.7-19,13.3-17.6,14-12
						C14.7-7.7,8.9,1.2,9.5,9.5"/>
				</g>
			</g>
		</g>
	</g>
</g>
</svg>
