<?xml version="1.0" encoding="utf-8"?>
<!-- Generator: Adobe Illustrator 22.0.1, SVG Export Plug-In . SVG Version: 6.00 Build 0)  -->
<svg version="1.1"
	 id="svg5188" xmlns:cc="http://creativecommons.org/ns#" xmlns:dc="http://purl.org/dc/elements/1.1/" xmlns:rdf="http://www.w3.org/1999/02/22-rdf-syntax-ns#" xmlns:svg="http://www.w3.org/2000/svg"
	 xmlns="http://www.w3.org/2000/svg" xmlns:xlink="http://www.w3.org/1999/xlink" x="0px" y="0px" viewBox="0 0 51 49"
	 style="enable-background:new 0 0 51 49;" xml:space="preserve">
<style type="text/css">
	.st0{clip-path:url(#SVGID_2_);fill:#826550;}
</style>
<g id="g5196" transform="matrix(1.3333333,0,0,-1.3333333,0,65.971333)">
	<g id="g5198">
		<g>
			<defs>
				<rect id="SVGID_1_" x="-6.4" y="6.6" width="51" height="49"/>
			</defs>
			<clipPath id="SVGID_2_">
				<use xlink:href="#SVGID_1_"  style="overflow:visible;"/>
			</clipPath>
			<g id="g5200" class="st0">
				<g id="g5206" transform="translate(36.9502,21.4229)">
					<path id="path5208" d="M-9.5,7.2c-0.2-1.2-1.2-2.5-2.5-2.6c-2.2-0.1-3.3,3.3-5.8,3.3c-2.5,0-3.6-3.4-5.8-3.3
						c-1.3,0.1-2.3,1.4-2.5,2.6c-0.2,1.4,0.5,3.4,1.2,4.2c0.8,0.8,2.1,0.7,3.5,0.9c1.5,0.2,2.8,0.7,3.6,1.4c0,0,0,0,0,0
						c0.8-0.8,2.1-1.2,3.6-1.4c1.4-0.2,2.7-0.1,3.5-0.9C-10,10.6-9.3,8.7-9.5,7.2 M0.8,28.1H0.7c-1.7-5.7-2.2-12.7-7-15.3
						c-0.9,2.5-3.1,3.6-5.5,4.7c-1.6,0.7-3.4,1.9-4.9,2c-0.4,0-0.8,0-1.1-0.2c-0.3,0.3-0.7,0.2-1.1,0.2c-1.5-0.1-3.3-1.3-4.9-2
						c-2.5-1.1-4.6-2.2-5.5-4.7c-4.8,2.6-5.2,9.6-7,15.3h-0.2c-0.2-0.5-0.3-1.2-0.4-1.8c0-1.4,0.4-15.9,1.4-21.1
						c0.9-4.7,4.5-8,8-10.3c2.4-1.5,6.3-3.6,9.7-3.6c3.4,0,7.2,2.1,9.7,3.6c3.5,2.2,7.1,5.6,8,10.3c1,5.2,1.4,19.7,1.4,21.1
						C1.1,26.9,1.1,27.5,0.8,28.1"/>
				</g>
			</g>
		</g>
	</g>
</g>
</svg>
