<?xml version="1.0" encoding="utf-8"?>
<!-- Generator: Adobe Illustrator 22.0.1, SVG Export Plug-In . SVG Version: 6.00 Build 0)  -->
<svg version="1.1" id="Layer_1" xmlns="http://www.w3.org/2000/svg" xmlns:xlink="http://www.w3.org/1999/xlink" x="0px" y="0px"
	 viewBox="0 0 58 98" style="enable-background:new 0 0 58 98;" xml:space="preserve">
<style type="text/css">
	.st0{fill:#826550;}
</style>
<path class="st0" d="M52,15.2C51.6,9.7,51.4,4.3,49.5,0c-0.8,0-1.5,7.3-2.3,10.9c-1.5,7.1-3.8,8.3-4.5,8.3c-0.9-3.9-4.5-4.2-7.9-5.9
	c-1.2-0.6-2.3-1.1-3.7-1.2c-0.7-0.1-1.3,0.1-2,0.1c-0.7,0-1.3-0.2-2-0.1c-1.3,0.1-2.4,0.6-3.7,1.2c-3.5,1.6-7,2-7.9,5.9
	c-0.7,0-3.1-1.1-4.5-8.3C10.1,7.3,9.4,0,8.5,0C6.6,4.4,6.4,9.8,6,15.2C5.1,38.8,0,51.7,0,62.6C0,88.8,11.9,98,29,98s29-9.2,29-35.4
	C58,51.7,52.9,38.8,52,15.2z M35,25c-2.8,1.2-5.5-0.7-6-0.7c0,0,0,0-0.1,0c0,0,0,0-0.1,0c-0.5,0-3.2,1.9-6,0.7c-0.8-3.6,2.4-4,6-3.9
	C32.6,21,35.8,21.4,35,25z"/>
</svg>
