<?xml version="1.0" encoding="utf-8"?>
<!-- Generator: Adobe Illustrator 22.0.1, SVG Export Plug-In . SVG Version: 6.00 Build 0)  -->
<svg version="1.1"
	 id="svg5232" xmlns:cc="http://creativecommons.org/ns#" xmlns:dc="http://purl.org/dc/elements/1.1/" xmlns:rdf="http://www.w3.org/1999/02/22-rdf-syntax-ns#" xmlns:svg="http://www.w3.org/2000/svg"
	 xmlns="http://www.w3.org/2000/svg" xmlns:xlink="http://www.w3.org/1999/xlink" x="0px" y="0px" viewBox="0 0 64 78"
	 style="enable-background:new 0 0 64 78;" xml:space="preserve">
<style type="text/css">
	.st0{clip-path:url(#SVGID_2_);fill:#826550;}
</style>
<g id="g5240" transform="matrix(1.3333333,0,0,-1.3333333,0,104.65173)">
	<g id="g5242">
		<g>
			<defs>
				<rect id="SVGID_1_" x="-8" y="10.2" width="64" height="78"/>
			</defs>
			<clipPath id="SVGID_2_">
				<use xlink:href="#SVGID_1_"  style="overflow:visible;"/>
			</clipPath>
			<g id="g5244" class="st0">
				<g id="g5250" transform="translate(33.2373,51.7285)">
					<path id="path5252" d="M-7.7,6.8c-0.5,0.1-2.6,0.1-3.1,0c-1.3-0.3-4.4-0.7-4.4,0.8c0,0.8,5.2,1.7,6,1.7c0.8,0,6-0.9,6-1.7
						C-3.2,6.1-6.3,6.6-7.7,6.8 M14.8-4.5c0,3.9-1.8,5.8-2.8,7.4c-0.7,1.2-3.1,8-3.2,13.1c-0.1,3.7-1.3,9.3-2.2,10.7
						c-0.7,0-1.2-5.8-1.8-8.7c-1.1-5.2-2.9-6.7-3.4-6.7c-0.6,2.1-3.2,5.5-10.5,5.8c0,0-0.1,0-0.1,0c0,0-0.1,0-0.1,0
						c-7.4-0.3-9.9-3.7-10.5-5.8c-0.5,0-2.3,1.5-3.4,6.7c-0.6,2.9-1.1,8.7-1.8,8.7c-0.9-1.5-2.2-7.1-2.2-10.7
						c-0.2-5.1-2.5-11.9-3.2-13.1c-0.9-1.6-2.8-3.5-2.8-7.4c0-2.8,4-5.4,4.3-8.5c0.1-0.9,0-1.8,0.1-2.5c1.5-13,13.7-16.2,19.6-16.2
						c5.8,0,18,3.2,19.6,16.2c0.1,0.8,0,1.6,0.1,2.5C10.8-9.9,14.8-7.3,14.8-4.5"/>
				</g>
			</g>
		</g>
	</g>
</g>
</svg>
