<?xml version="1.0" encoding="utf-8"?>
<!-- Generator: Adobe Illustrator 22.0.1, SVG Export Plug-In . SVG Version: 6.00 Build 0)  -->
<svg version="1.1" id="Layer_1" xmlns="http://www.w3.org/2000/svg" xmlns:xlink="http://www.w3.org/1999/xlink" x="0px" y="0px"
	 viewBox="0 0 46 105" style="enable-background:new 0 0 46 105;" xml:space="preserve">
<style type="text/css">
	.st0{fill:#826550;}
</style>
<path class="st0" d="M44.7,0h-0.1c-2.9,21.5-5.5,22.6-7.2,22.7c-1.4,0.1-3.7-1.8-5-2.5c-1.5-0.9-4.2-2.5-9.3-2.5s-7.8,1.7-9.3,2.5
	c-1.3,0.7-3.6,2.6-5,2.5C7,22.6,4.4,21.5,1.4,0H1.3c-2.2,12.2-1.6,50.3,1.2,63.7c2.7,18.5,10.4,35.2,13.8,39.7
	c0.7,1,3.6,1.6,6.6,1.6s5.9-0.5,6.6-1.6c3.4-4.5,11.1-21.1,13.8-39.7C46.3,50.3,46.8,12.2,44.7,0z M23,28.2c-3.5,0-6.9,0.2-10.4,0.5
	c1.1-1.8,9.2-3.2,10.4-3.4c1.1,0.2,9.2,1.7,10.4,3.4C29.9,28.4,26.5,28.2,23,28.2z"/>
</svg>
