<?xml version="1.0" encoding="utf-8"?>
<!-- Generator: Adobe Illustrator 22.0.1, SVG Export Plug-In . SVG Version: 6.00 Build 0)  -->
<svg version="1.1"
	 id="svg5282" xmlns:cc="http://creativecommons.org/ns#" xmlns:dc="http://purl.org/dc/elements/1.1/" xmlns:rdf="http://www.w3.org/1999/02/22-rdf-syntax-ns#" xmlns:svg="http://www.w3.org/2000/svg"
	 xmlns="http://www.w3.org/2000/svg" xmlns:xlink="http://www.w3.org/1999/xlink" x="0px" y="0px" viewBox="0 0 36 36"
	 style="enable-background:new 0 0 36 36;" xml:space="preserve">
<style type="text/css">
	.st0{clip-path:url(#SVGID_2_);fill:#ffffff;}
</style>
<g id="g5290" transform="matrix(1.3333333,0,0,-1.3333333,0,682.66667)">
	<g id="g5292">
		<g>
			<defs>
				<rect id="SVGID_1_" x="-4.5" y="480.5" width="36" height="36"/>
			</defs>
			<clipPath id="SVGID_2_">
				<use xlink:href="#SVGID_1_"  style="overflow:visible;"/>
			</clipPath>
			<g id="g5294" class="st0">
				<path id="path5300" d="M23.6,503.6h-5.1v5.1h5.1V503.6z M23.6,488.4H3.4v11.8h3.4H7c-0.1-0.5-0.2-1.1-0.2-1.7
					c0-3.7,3-6.8,6.8-6.8s6.8,3,6.8,6.8c0,0.6-0.1,1.1-0.2,1.7h0.2h3.4V488.4z M10.1,498.5c0,0,0.3,3.4,3.4,3.4s3.4-3.4,3.4-3.4
					s0.1-3.4-3.4-3.4C10,495.1,10.1,498.5,10.1,498.5 M25.3,512H1.7c-0.9,0-1.7-0.8-1.7-1.7v-23.6c0-0.9,0.8-1.7,1.7-1.7h23.6
					c0.9,0,1.7,0.8,1.7,1.7v23.6C27,511.2,26.2,512,25.3,512"/>
			</g>
		</g>
	</g>
</g>
</svg>
