<?xml version="1.0" encoding="UTF-8" standalone="no"?>
<svg
   xmlns:dc="http://purl.org/dc/elements/1.1/"
   xmlns:cc="http://creativecommons.org/ns#"
   xmlns:rdf="http://www.w3.org/1999/02/22-rdf-syntax-ns#"
   xmlns:svg="http://www.w3.org/2000/svg"
   xmlns="http://www.w3.org/2000/svg"
   viewBox="0 0 682.66669 682.66669"
   height="682.66669"
   width="682.66669"
   xml:space="preserve"
   id="svg5282"
   version="1.1"><metadata
     id="metadata5288"><rdf:RDF><cc:Work
         rdf:about=""><dc:format>image/svg+xml</dc:format><dc:type
           rdf:resource="http://purl.org/dc/dcmitype/StillImage" /><dc:title></dc:title></cc:Work></rdf:RDF></metadata><defs
     id="defs5286"><clipPath
       id="clipPath5298"
       clipPathUnits="userSpaceOnUse"><path
         id="path5296"
         d="M 0,512 H 512 V 0 H 0 Z" /></clipPath></defs><g
     transform="matrix(1.3333333,0,0,-1.3333333,0,682.66667)"
     id="g5290"><g
       id="g5292"><g
         clip-path="url(#clipPath5298)"
         id="g5294"><path
           id="path5300"
           style="fill:#000000;fill-opacity:1;fill-rule:nonzero;stroke:none"
           d="m 448,352 h -96 v 96 h 96 z M 448,64 H 64 v 224 h 64 4.529 C 129.875,277.719 128,267.125 128,256 c 0,-70.687 57.312,-128 128,-128 70.688,0 128,57.313 128,128 0,11.125 -1.875,21.719 -4.531,32 H 384 448 Z M 192,256 c 0,0 5.062,64 64,64 58.938,0 64,-64 64,-64 0,0 1.844,-64 -64,-64 -65.845,0 -64,64 -64,64 M 480,512 H 32 C 14.312,512 0,497.688 0,480 V 32 C 0,14.313 14.312,0 32,0 h 448 c 17.688,0 32,14.313 32,32 v 448 c 0,17.688 -14.312,32 -32,32" /></g></g></g></svg>