<svg xmlns="http://www.w3.org/2000/svg" xmlns:xlink="http://www.w3.org/1999/xlink" width="15" height="17" viewBox="0 0 15 17"><defs><path id="rl2xa" d="M732.76 393.44c1.35 0 1.24 1.53 1.24 1.53v8.61c0 1.3-1.24 1.42-1.24 1.42h-12.57c-1.58 0-1.14-1.42-1.14-1.42v-9.05c0-1.36 1.26-1.08 1.26-1.08h.63a5.36 5.36 0 0 1 5.45-5.45 5.5 5.5 0 0 1 5.61 5.45zm-1.94 0c0-2.48-1.92-4.14-4.28-4.14-2.37 0-4.29 1.66-4.29 4.14zm-6.6 4.09c0 .9.55 1.67 1.32 1.94.2.07-.65 3.54-.65 3.54l2.64-.02s-.76-3.5-.66-3.54a2.05 2.05 0 0 0 1.26-1.92 2 2 0 0 0-1.96-2.06 2 2 0 0 0-1.96 2.06z"/></defs><g><g transform="translate(-719 -388)"><use fill="#d1d1d1" xlink:href="#rl2xa"/><use xlink:href="#rl2xa"/></g></g></svg>