<?xml version="1.0" encoding="utf-8"?>
<!-- Generator: Adobe Illustrator 22.0.1, SVG Export Plug-In . SVG Version: 6.00 Build 0)  -->
<svg version="1.1"
	 id="svg5466" xmlns:cc="http://creativecommons.org/ns#" xmlns:dc="http://purl.org/dc/elements/1.1/" xmlns:rdf="http://www.w3.org/1999/02/22-rdf-syntax-ns#" xmlns:svg="http://www.w3.org/2000/svg"
	 xmlns="http://www.w3.org/2000/svg" xmlns:xlink="http://www.w3.org/1999/xlink" x="0px" y="0px" viewBox="0 0 301.1 40.1"
	 style="enable-background:new 0 0 301.1 40.1;" xml:space="preserve">
<style type="text/css">
	.st0{fill:#FFFFFF;}
	.st1{fill:#636466;}
	.st2{clip-path:url(#SVGID_2_);}
</style>
<g id="g5474" transform="matrix(1.3333333,0,0,-1.3333333,0,40.0528)">
	<g id="g5476" transform="translate(0,16.8669)">
		<path id="path5478" class="st0" d="M0,0l3.5-3.5L7,0L3.5,3.5L0,0z"/>
	</g>
	<g id="g5480" transform="translate(222.1143,16.8564)">
		<path id="path5482" class="st0" d="M0,0l-3.5-3.5L-7,0l3.5,3.5L0,0z"/>
	</g>
	<g id="g5484" transform="translate(28.6025,16.7427)">
		<path id="path5486" class="st1" d="M0,0h1.3v5.1h2v1.3H0V0z"/>
	</g>
	<g id="g5488">
		<g>
			<defs>
				<rect id="SVGID_1_" x="-37.6" y="-5" width="301.1" height="40.1"/>
			</defs>
			<clipPath id="SVGID_2_">
				<use xlink:href="#SVGID_1_"  style="overflow:visible;"/>
			</clipPath>
			<g id="g5490" class="st2">
				<g id="g5496" transform="translate(37.7061,15.8086)">
					<path id="path5498" class="st1" d="M0,0v7.8c0,1.1-0.7,2-1.6,2.5C-1.4,9.9-1.3,9.5-1.3,9V1.3c0-0.9-0.4-1.6-1-2.1
						c0.6-0.6,1-1.3,1-2.3v-8.6c0-1.5-1.3-2.8-2.8-2.8h-8.3v-1.3h9.6c1.5,0,2.8,1.3,2.8,2.8v8.6c0,1-0.5,1.7-1,2.3
						C-0.4-1.6,0-0.9,0,0"/>
				</g>
				<g id="g5500" transform="translate(28.6025,5.8281)">
					<path id="path5502" class="st1" d="M0,0h1.3v5.1h2v1.3H0V0z"/>
				</g>
				<g id="g5504" transform="translate(48.7783,5.8281)">
					<path id="path5506" class="st1" d="M0,0h1.3v16h2v1.3H0V0z"/>
				</g>
				<g id="g5508" transform="translate(56.3135,26.0483)">
					<path id="path5510" class="st1" d="M0,0c0.2-0.4,0.3-0.8,0.3-1.2V-22c0-1.5-1.3-2.8-2.8-2.8h-6.8c-0.4,0-0.8,0.1-1.2,0.3
						C-10-25.4-9.1-26-8-26h6.8c1.5,0,2.8,1.3,2.8,2.8v20.8C1.6-1.4,0.9-0.5,0,0"/>
				</g>
				<g id="g5512" transform="translate(68.9541,16.7427)">
					<path id="path5514" class="st1" d="M0,0h1.3v5.1h2v1.3H0V0z"/>
				</g>
				<g id="g5516" transform="translate(76.4385,11.2168)">
					<path id="path5518" class="st1" d="M0,0c1,0.5,1.6,1.4,1.6,2.5v9.9c0,1.1-0.6,2.1-1.6,2.5c0.2-0.4,0.3-0.8,0.3-1.2V3.8
						c0-1.1-0.6-2-1.6-2.5L0.6-9.9h-3.5l0.2-1.3h4.5L0,0z"/>
				</g>
				<g id="g5520" transform="translate(70.6855,12.2266)">
					<path id="path5522" class="st1" d="M0,0h-1.7v-11H-5v-1.3h4.5v11h0.7L0,0z"/>
				</g>
				<g id="g5524" transform="translate(88.5273,5.8281)">
					<path id="path5526" class="st1" d="M0,0h1.3v16h2v1.3H0V0z"/>
				</g>
				<g id="g5528" transform="translate(96.0635,26.0483)">
					<path id="path5530" class="st1" d="M0,0c0.2-0.4,0.3-0.8,0.3-1.2V-22c0-1.5-1.3-2.8-2.8-2.8h-6.8c-0.4,0-0.8,0.1-1.2,0.3
						C-10-25.4-9.1-26-8-26h6.8c1.5,0,2.8,1.3,2.8,2.8v20.8C1.6-1.4,0.9-0.5,0,0"/>
				</g>
				<g id="g5532" transform="translate(108.7041,5.8281)">
					<path id="path5534" class="st1" d="M0,0h1.3v16h2v1.3H0V0z"/>
				</g>
				<g id="g5536" transform="translate(116.2393,26.0483)">
					<path id="path5538" class="st1" d="M0,0c0.2-0.4,0.3-0.8,0.3-1.2V-22c0-1.5-1.3-2.8-2.8-2.8h-8.3V-26h9.6
						c1.5,0,2.8,1.3,2.8,2.8v20.8C1.6-1.4,0.9-0.5,0,0"/>
				</g>
				<g id="g5540" transform="translate(129.1055,26.3467)">
					<path id="path5542" class="st1" d="M0,0v-25.1h-3.2v-1.3h4.5V0H0z"/>
				</g>
				<g id="g5544" transform="translate(149.2061,26.3467)">
					<path id="path5546" class="st1" d="M0,0v-25.1h-3.6l0.4-1.3h4.5V0H0z"/>
				</g>
				<g id="g5548" transform="translate(141.376,12.791)">
					<path id="path5550" class="st1" d="M0,0v-11.5h-3.2v-1.3h4.5v8.4L0,0z"/>
				</g>
				<g id="g5552" transform="translate(161.0947,10.9531)">
					<path id="path5554" class="st1" d="M0,0h3.7v1.3h-5c-0.4,0-0.9,0.1-1.2,0.3C-2,0.6-1.1,0,0,0"/>
				</g>
				<g id="g5556" transform="translate(162.8242,9.2598)">
					<path id="path5558" class="st1" d="M0,0l-1.3-0.3v-3.1H0V0z"/>
				</g>
				<g id="g5560" transform="translate(169.0869,26.0483)">
					<path id="path5562" class="st1" d="M0,0c0.2-0.4,0.3-0.8,0.3-1.2v-5.3L-3-7.3v-1.6l4.6,1.1v5.3C1.6-1.4,0.9-0.5,0,0"/>
				</g>
				<g id="g5564" transform="translate(169.0869,15.1704)">
					<path id="path5566" class="st1" d="M0,0c0.2-0.4,0.3-0.8,0.3-1.2v-9.9c0-1.5-1.3-2.8-2.8-2.8h-6.8c-0.4,0-0.8,0.1-1.2,0.3
						c0.5-0.9,1.4-1.6,2.5-1.6h6.8c1.5,0,2.8,1.3,2.8,2.8v9.9C1.6-1.4,0.9-0.5,0,0"/>
				</g>
				<g id="g5568" transform="translate(161.5527,23.1035)">
					<path id="path5570" class="st1" d="M0,0v-6.4h1.3v5.1h2V0H0z"/>
				</g>
				<g id="g5572" transform="translate(182.1426,12.2266)">
					<path id="path5574" class="st1" d="M0,0h-0.4v-11h-3.2v-1.3h4.5v9.5L0,0z"/>
				</g>
				<g id="g5576" transform="translate(191.3945,26.3467)">
					<path id="path5578" class="st1" d="M0,0h-1.7l-3.8-11.9l4.2-13.2h-3.7l0.4-1.1l0-0.1H0l-4.2,13.2L0,0z"/>
				</g>
				<g id="g5580" transform="translate(202.0166,26.3467)">
					<path id="path5582" class="st1" d="M0,0v-25.1h-3.2v-1.3h4.5V0H0z"/>
				</g>
				<g id="g5584" transform="translate(221.0469,10.9512)">
					<path id="path5586" class="st1" d="M0,0l3.5,3.5l1.3-1.3L1.3-1.3L0,0z"/>
				</g>
				<g id="g5588" transform="translate(5.915,10.9531)">
					<path id="path5590" class="st1" d="M0,0l3.5,3.5l1.3-1.3L1.3-1.3L0,0z"/>
				</g>
				<path id="path5592" class="st0" d="M29.5,14.6h-3.3V8.2h3.3V14.6z M29.5,25.5h-3.3v-6.4h3.3V25.5z M34,19.5c0-0.9-0.4-1.6-1-2.1
					c0.6-0.6,1-1.3,1-2.3V6.5c0-1.5-1.3-2.8-2.8-2.8h-9.6V30h9.6c1.5,0,2.8-1.2,2.8-2.8V19.5z"/>
				<path id="path5594" class="st0" d="M49.6,25.5h-3.3V8.2h3.3L49.6,25.5z M51.4,30c1.5,0,2.8-1.2,2.8-2.8V6.5
					c0-1.5-1.3-2.8-2.8-2.8h-6.8c-1.5,0-2.8,1.3-2.8,2.8v20.8c0,1.5,1.2,2.8,2.8,2.8H51.4z"/>
				<path id="path5596" class="st0" d="M69.8,25.5h-3.3v-6.4h3.3V25.5z M70.1,3.7l-1.8,11h-1.7v-11H62V30h9.6c1.5,0,2.7-1.2,2.7-2.8
					v-9.9c0-1.1-0.6-2-1.6-2.5l1.9-11.2H70.1z"/>
				<path id="path5598" class="st0" d="M89.4,25.5h-3.3V8.2h3.3V25.5z M91.2,30c1.5,0,2.8-1.2,2.8-2.8V6.5c0-1.5-1.3-2.8-2.8-2.8
					h-6.8c-1.5,0-2.8,1.3-2.8,2.8v20.8c0,1.5,1.2,2.8,2.8,2.8H91.2z"/>
				<path id="path5600" class="st0" d="M109.6,25.5h-3.3V8.2h3.3V25.5z M111.3,30c1.5,0,2.8-1.2,2.8-2.8V6.5c0-1.5-1.3-2.8-2.8-2.8
					h-9.6V30H111.3z"/>
				<path id="path5602" class="st0" d="M122.2,30h4.5V3.7h-4.5V30z"/>
				<g id="g5604" transform="translate(146.7852,30.0396)">
					<path id="path5606" class="st0" d="M0,0v-26.3h-4.5l-3.3,11.5v-11.5h-4.5V0h4.5l3.3-10.8V0H0z"/>
				</g>
				<g id="g5608" transform="translate(164.1768,19.1626)">
					<path id="path5610" class="st0" d="M0,0c1.5,0,2.8-1.2,2.8-2.8v-9.9c0-1.5-1.3-2.8-2.8-2.8h-6.8c-1.5,0-2.8,1.3-2.8,2.8v5.4
						L-5-6.2v-4.7h3.3v6.4h-5c-1.5,0-2.8,1.2-2.8,2.8v9.8c0,1.5,1.2,2.8,2.8,2.8H0c1.5,0,2.8-1.2,2.8-2.8V2.7l-4.6-1.1v4.7H-5V0H0z"
						/>
				</g>
				<g id="g5612" transform="translate(183.4854,16.9038)">
					<path id="path5614" class="st0" d="M0,0l4.2-13.2h-4.6l0,0.2L-3.8-2.3h-0.4v-11h-4.5v26.3h4.5V2.3h0.3l3.5,10.9h4.6L0,0z"/>
				</g>
				<path id="path5616" class="st0" d="M195.1,30h4.5V3.7h-4.5V30z"/>
			</g>
		</g>
	</g>
</g>
</svg>
