<?xml version="1.0" encoding="utf-8"?>
<!-- Generator: Adobe Illustrator 22.0.1, SVG Export Plug-In . SVG Version: 6.00 Build 0)  -->
<svg version="1.1"
	 id="svg5302" xmlns:cc="http://creativecommons.org/ns#" xmlns:dc="http://purl.org/dc/elements/1.1/" xmlns:rdf="http://www.w3.org/1999/02/22-rdf-syntax-ns#" xmlns:svg="http://www.w3.org/2000/svg"
	 xmlns="http://www.w3.org/2000/svg" xmlns:xlink="http://www.w3.org/1999/xlink" x="0px" y="0px" viewBox="0 0 492.6 204.1"
	 style="enable-background:new 0 0 492.6 204.1;" xml:space="preserve">
<style type="text/css">
	.st0{clip-path:url(#SVGID_2_);}
	.st1{fill:#FFFFFF;}
	.st2{fill:#636466;}
</style>
<g id="g5310" transform="matrix(1.3333333,0,0,-1.3333333,0,204.064)">
	<g id="g5312">
		<g>
			<defs>
				<rect id="SVGID_1_" x="-61.6" y="-25.5" width="492.6" height="204.1"/>
			</defs>
			<clipPath id="SVGID_2_">
				<use xlink:href="#SVGID_1_"  style="overflow:visible;"/>
			</clipPath>
			<g id="g5314" class="st0">
				<g id="g5320" transform="translate(114.8945,143.2627)">
					<path id="path5322" class="st1" d="M0,0l2.9,4.9C5.5,9.4,8.8,6.8,7,3.4C5.6,0.9,3.6,0.1,0,0 M-3.8-16.2C-6-16.2-7.6-15.7-9-15
						c0.6,0.7,1.2,1.6,1.8,2.5l6,10.4l1-0.1C8.1-3.9,4.8-16.2-3.8-16.2 M5-1.6c7.2,2.4,7.7,11.4,0.7,11.4c-1.9,0-4.3-1.4-5.9-4.2
						l-9.6-16.6c-0.4-0.8-0.9-1.4-1.4-2C-13.7-9.6-13-4.5-9.5-2.3l-1.4,1.8C-18.4-5.2-16.2-19-3.8-19C6.9-19,11.8-6.2,5-1.6"/>
				</g>
				<g id="g5324" transform="translate(236.1807,133.854)">
					<path id="path5326" class="st1" d="M0,0h-0.2c-1.2,0-2.1-1-2.1-2.1c0-0.4,0.1-0.9,0.3-1.2l0-0.1C-3.6-6.3-7.7-5.7-5.6-2
						l2.7,4.7l1.7,2.9c2.5,4.2,5.9,2.6,3.8-1.1L0,0z M-73.1-1.8C-74-1.1-74.6,0-74.6,1.4c0,2.5,2.5,6.7,4.5,6.7
						c0.8,0,1.3-0.6,1.3-1.5c0-0.6-0.2-1.3-0.7-2.1L-73.1-1.8z M-76.8-5.2c-0.8,0-1.4,0.5-1.4,1.4c0,0.5,0.2,1.1,0.6,1.8l1.3,2.2
						c0.3-1.5,1-2.9,2.3-3.7C-74.8-4.7-75.9-5.2-76.8-5.2 M-103.6-0.4c-2.2-3.4-4.3-5-5.7-5c-0.8,0-1.2,0.5-0.4,2l5,8.7
						c1.9,3.3,5.7,2.5,4-0.8L-103.6-0.4z M-58,5.2c2.1,3.5,5.7,2.9,3.6-0.8l-0.5-0.9c-1.7-2.9-4-2.8-5.3-2.4L-58,5.2z M23,0.2
						L22.8,0c-2-2.3-4.3-4.2-6.5-5c0.6,0.9,1,1.9,1.5,2.7l3.9,6.7C25,10,19.6,11.9,16,8.7l0.7,1.2h-3.6L7.6,0.2c0,0,0,0,0,0L7.4,0
						C5.7-1.8,3.8-2.6,2-2.7l3.4,5.8c2.2,3.7,0.2,7.3-3.2,7.3c-2.7,0-4.9-1.1-6.9-4.7l-1.7-3L-8,0.2L-8.1,0c-2.6-3-5.1-5.3-6.6-5.3
						c-0.8,0-1.2,0.5-0.4,2l5.1,9c1.5,2.7,0.1,4.7-1.9,4.7c-1.5,0-3.2-0.9-5-2.7l5.7,9.9h-3.6l-9.9-17.2L-24.9,0
						c-1.3-1.5-2.9-2.9-4.3-3.9c1.1,3.4,0.9,8.6,3.1,13.1l-2.7,1.4c-1.5-2-4.7-6.7-7.9-10.4L-36.9,0c-2.6-3-5.1-5.3-6.6-5.3
						c-0.8,0-1.2,0.5-0.4,2l3.6,6.2c1.2,2.2,0.7,3.4-0.5,4.8l-2,2.4c-0.5,0.7-0.5,1.4,0.2,2.1l-1.8,2c-2-1.8-2.2-3.8-0.9-5.5
						l0.3-0.4c-1.6-2.2-3.7-5.2-6-8L-51.5,0c-2.6-3-5.9-5.3-8.3-5.3c-2.2,0-3.5,1.4-1.8,4.2l0.3,0.6c2.3-1,6.6-0.5,9.3,4.1l0.5,0.9
						c1.9,3.3,0.1,5.7-2.8,5.7c-2.9,0-5.2-1.5-6.7-4.1l-3.4-5.9L-64.7,0c-1.6-1.8-3.6-2.6-5.4-2.6l3.4,5.8c0.9,1.6,1.3,2.9,1.3,4.1
						c0,1.8-1.2,3.2-3.2,3.2c-0.9,0-1.6-0.3-2.3-0.8l4.5,7.8H-70L-80,0.2L-80.2,0c-2.6-3-5.1-5.3-6.6-5.3c-0.8,0-1.2,0.5-0.4,2
						l3.6,6.2c1.2,2.2,0.7,3.4-0.5,4.8l-2,2.4c-0.5,0.7-0.5,1.4,0.2,2.1l-1.8,2c-2-1.8-2.2-3.8-0.9-5.5l0.3-0.4
						c-1.6-2.2-3.7-5.2-6-8L-94.7,0c-2.6-3-5.1-5.3-6.6-5.3c-0.8,0-1.2,0.5-0.4,2L-96,6.6h-2c0.1,1.5-1.4,3.6-3.7,3.6
						c-1.9,0-4.6-1.5-6.1-4.1l-5-8.6c-1.5-2.6-0.4-5.1,2.4-5.1c1.4,0,3.2,0.9,4.9,2.3c0.2-1.4,1.3-2.3,3.1-2.3
						c2.9,0,6.3,3.1,9.3,6.6c1.7,2,3,3.8,5.9,7.6l0.5-0.6c0.4-0.6,0.6-1.3,0.2-2l-3.8-6.5c-1.5-2.6-0.4-5.1,2.4-5.1
						c2.1,0,4.3,1.5,6.5,3.7c0,0,0,0,0,0c0-2.4,1.8-3.8,4.1-3.8c2,0,4.3,1,6.1,3.3c0.3,0,0.5,0,0.8,0c1.3,0,3.1,0.5,4.7,1.4
						c-0.2-2.6,1.7-4.5,4.8-4.5c4,0,8,3.1,11,6.6c1.7,2,3,3.8,5.9,7.6l0.5-0.6c0.4-0.6,0.6-1.3,0.2-2l-3.8-6.5
						c-1.5-2.6-0.4-5.1,2.4-5.1c2.9,0,6.3,3.1,9.3,6.6h0h0c2,2.3,3.8,4.8,5.1,6.5c-1.4-3.7-0.6-10.3-4-10.3c-1.2,0-1.7,1.3-1.7,1.3
						l-2.2-1.2c0,0,0.6-2.9,3.9-2.9c0.3,0,0.6,0,1,0.1c0,0,0.1,0,0.1,0c1.9,0.2,3.7,1.1,5.5,2.4L-29-7.2h3.6l5.4,9.4
						c5.5,6.9,7.9,6,6.4,3.4l-4.6-8c-1.5-2.6-0.4-5.1,2.4-5.1c2.1,0,4.4,1.6,6.6,3.7c0-4.5,6.3-5.4,10.1-0.6h0.8
						c1.1,0,2.5,0.3,3.8,0.9L-1-14.8h3.6L13.2,3.8c4,5.4,6.5,3.4,5.5,1.8l-5.4-9.3c-0.6-1-1.9-1.3-2.6,0l-2-1c0,0,0.6-2.9,3.9-2.9
						h0.2c5.2,0.1,8.6,3.2,11.5,6.6C24.2-0.4,23.5,0.1,23,0.2"/>
				</g>
				<g id="g5328" transform="translate(11.4326,79.772)">
					<path id="path5330" class="st1" d="M0,0l-5.7-5.7L-11.4,0l5.7,5.7L0,0z"/>
				</g>
				<g id="g5332" transform="translate(363.4209,79.7881)">
					<path id="path5334" class="st1" d="M0,0l-5.7-5.7L-11.4,0l5.7,5.7L0,0z"/>
				</g>
				<g id="g5336" transform="translate(46.7949,79.5679)">
					<path id="path5338" class="st2" d="M0,0h2.1v8.3h3.3v2.1H0V0z"/>
				</g>
				<g id="g5340" transform="translate(61.6875,78.0391)">
					<path id="path5342" class="st2" d="M0,0v12.7c0,1.8-1.1,3.3-2.6,4.1c0.3-0.6,0.5-1.3,0.5-2V2.1c0-1.4-0.6-2.6-1.7-3.5
						c0.9-1,1.7-2.1,1.7-3.7v-14.1c0-2.5-2.1-4.6-4.6-4.6h-13.6v-2.1h15.6c2.5,0,4.6,2.1,4.6,4.6v14.1c0,1.6-0.7,2.7-1.7,3.7
						C-0.6-2.6,0-1.4,0,0"/>
				</g>
				<g id="g5344" transform="translate(46.7949,61.708)">
					<path id="path5346" class="st2" d="M0,0h2.1v8.4h3.3v2.1H0V0z"/>
				</g>
				<g id="g5348" transform="translate(79.8066,61.708)">
					<path id="path5350" class="st2" d="M0,0h2.1v26.2h3.3v2.1H0V0z"/>
				</g>
				<g id="g5352" transform="translate(92.1357,94.7939)">
					<path id="path5354" class="st2" d="M0,0c0.3-0.6,0.5-1.3,0.5-2v-34c0-2.5-2.1-4.6-4.6-4.6h-11.1c-0.7,0-1.4,0.2-2,0.5
						c0.7-1.5,2.3-2.6,4.1-2.6H-2c2.5,0,4.6,2.1,4.6,4.6v34C2.6-2.3,1.5-0.7,0,0"/>
				</g>
				<g id="g5356" transform="translate(112.8164,79.5679)">
					<path id="path5358" class="st2" d="M0,0h2.1v8.3h3.3v2.1H0V0z"/>
				</g>
				<g id="g5360" transform="translate(125.0615,70.5254)">
					<path id="path5362" class="st2" d="M0,0c1.6,0.7,2.6,2.3,2.6,4.1v16.1c0,1.8-1.1,3.4-2.6,4.1c0.3-0.6,0.5-1.3,0.5-2V6.1
						c0-1.7-1-3.3-2.6-4.1L1-16.3h-5.7l0.3-2.1h7.4L0,0z"/>
				</g>
				<g id="g5364" transform="translate(115.6494,72.1768)">
					<path id="path5366" class="st2" d="M0,0h-2.8v-17.9h-5.3V-20h7.4v17.9h1.1L0,0z"/>
				</g>
				<g id="g5368" transform="translate(144.8447,61.708)">
					<path id="path5370" class="st2" d="M0,0h2.1v26.2h3.3v2.1H0V0z"/>
				</g>
				<g id="g5372" transform="translate(157.1729,94.7939)">
					<path id="path5374" class="st2" d="M0,0c0.3-0.6,0.5-1.3,0.5-2v-34c0-2.5-2.1-4.6-4.6-4.6h-11.1c-0.7,0-1.4,0.2-2,0.5
						c0.7-1.5,2.3-2.6,4.1-2.6H-2c2.5,0,4.6,2.1,4.6,4.6v34C2.6-2.3,1.5-0.7,0,0"/>
				</g>
				<g id="g5376" transform="translate(177.8545,61.708)">
					<path id="path5378" class="st2" d="M0,0h2.1v26.2h3.3v2.1H0V0z"/>
				</g>
				<g id="g5380" transform="translate(190.1846,94.7939)">
					<path id="path5382" class="st2" d="M0,0c0.3-0.6,0.5-1.3,0.5-2v-34c0-2.5-2.1-4.6-4.6-4.6h-13.6v-2.1H-2c2.5,0,4.6,2.1,4.6,4.6
						v34C2.6-2.3,1.5-0.7,0,0"/>
				</g>
				<g id="g5384" transform="translate(211.2354,95.2817)">
					<path id="path5386" class="st2" d="M0,0v-41h-5.3v-2.1h7.4V0H0z"/>
				</g>
				<g id="g5388" transform="translate(244.1221,95.2817)">
					<path id="path5390" class="st2" d="M0,0v-41h-5.9l0.6-2.1h7.4L2.1,0H0z"/>
				</g>
				<g id="g5392" transform="translate(231.3125,73.1016)">
					<path id="path5394" class="st2" d="M0,0v-18.8h-5.3v-2.1h7.4v13.7L0,0z"/>
				</g>
				<g id="g5396" transform="translate(263.5742,70.0928)">
					<path id="path5398" class="st2" d="M0,0h6.1v2.1h-8.2c-0.7,0-1.4,0.2-2,0.5C-3.3,1-1.8,0,0,0"/>
				</g>
				<g id="g5400" transform="translate(266.4063,67.3223)">
					<path id="path5402" class="st2" d="M0,0l-2.1-0.5v-5.1H0V0z"/>
				</g>
				<g id="g5404" transform="translate(276.6523,94.7939)">
					<path id="path5406" class="st2" d="M0,0c0.3-0.6,0.5-1.3,0.5-2v-8.7L-4.9-12v-2.6l7.5,1.7v8.7C2.6-2.3,1.5-0.7,0,0"/>
				</g>
				<g id="g5408" transform="translate(276.6523,76.9961)">
					<path id="path5410" class="st2" d="M0,0c0.3-0.6,0.5-1.3,0.5-2v-16.2c0-2.5-2.1-4.6-4.6-4.6h-11.1c-0.7,0-1.4,0.2-2,0.5
						c0.7-1.5,2.3-2.6,4.1-2.6H-2c2.5,0,4.6,2.1,4.6,4.6v16.2C2.6-2.3,1.5-0.7,0,0"/>
				</g>
				<g id="g5412" transform="translate(264.3232,89.9761)">
					<path id="path5414" class="st2" d="M0,0v-10.4h2.1v8.3h3.3V0H0z"/>
				</g>
				<g id="g5416" transform="translate(298.0137,72.1768)">
					<path id="path5418" class="st2" d="M0,0h-0.7v-17.9H-6V-20h7.4v15.5L0,0z"/>
				</g>
				<g id="g5420" transform="translate(313.1514,95.2817)">
					<path id="path5422" class="st2" d="M0,0h-2.8L-9-19.4L-2.1-41h-6l0.6-1.8l0.1-0.2H0l-6.9,21.6L0,0z"/>
				</g>
				<g id="g5424" transform="translate(330.5313,95.2817)">
					<path id="path5426" class="st2" d="M0,0v-41h-5.3v-2.1h7.4V0H0z"/>
				</g>
				<g id="g5428" transform="translate(167.8945,29.2012)">
					<path id="path5430" class="st1" d="M0,0h1.4c5.4-0.3,9.7-1.7,12.4-4.7c2.7,3,7,4.5,12.5,4.7h1.3c12.1-0.8,17.6-9.5,27.3-13.2
						c1.4-0.5,3.2-1.2,4.8-1c2.5,0.3,4.1,2.8,3.7,5.6c-0.3,3-3.3,5.6-6.6,4.2c-0.5-0.2-0.8-0.5-1.2-0.8c-0.3-0.2-0.5-0.8-1.2-0.6
						c-0.6,0.5,0,1.2,0.3,1.7c1.1,1.9,2.9,3.2,6.1,3c5.6-0.4,10.7-5.3,9.8-12.8c-1.9-11.2-12.1-14.1-24.2-15.2h-3.9
						c-12.5,0.7-21.4,5.1-28.8,11C6.4-24-2.4-28.5-15-29.2h-3.9c-12.2,1.1-22.4,4-24.2,15.5c-0.7,8.2,4.2,12.2,9.8,12.6
						c3.1,0.2,5-1.1,6.1-3c0.3-0.5,0.8-1.2,0.3-1.7C-27.5-6-27.8-5.5-28-5.3c-0.7,0.7-1.5,1.2-2.8,1.2c-3.9,0.1-6.1-4.2-4.5-7.6
						c0.5-1.2,1.8-2.4,3.4-2.5c1.6-0.1,3.4,0.5,4.8,1c1.5,0.5,2.7,1.2,3.9,1.9C-16-7-10.3-0.9,0,0"/>
				</g>
				<g id="g5432" transform="translate(361.6572,70.1104)">
					<path id="path5434" class="st2" d="M0,0l5.7,5.7l2.1-2.1L2.1-2.1L0,0z"/>
				</g>
				<g id="g5436" transform="translate(9.6709,70.0957)">
					<path id="path5438" class="st2" d="M0,0l5.7,5.7l2.1-2.1L2.1-2.1L0,0z"/>
				</g>
				<path id="path5440" class="st1" d="M48.2,76.1h-5.4V65.7h5.4V76.1z M48.2,93.9h-5.4V83.5h5.4V93.9z M55.6,84.1
					c0-1.4-0.6-2.6-1.7-3.5c0.9-1,1.7-2.1,1.7-3.7V62.8c0-2.5-2.1-4.6-4.6-4.6H35.4v43.1h15.6c2.5,0,4.6-2,4.6-4.6L55.6,84.1z"/>
				<path id="path5442" class="st1" d="M81.2,93.9h-5.4V65.7h5.4V93.9z M84.1,101.3c2.5,0,4.6-2,4.6-4.6v-34c0-2.5-2.1-4.6-4.6-4.6
					H73c-2.5,0-4.6,2.1-4.6,4.6v34c0,2.5,2,4.6,4.6,4.6H84.1z"/>
				<path id="path5444" class="st1" d="M114.2,93.9h-5.4V83.5h5.4V93.9z M114.7,58.2l-3,17.9h-2.8V58.2h-7.4v43.1h15.6
					c2.5,0,4.5-2,4.5-4.6V80.6c0-1.7-1-3.3-2.6-4.1l3.1-18.4L114.7,58.2z"/>
				<path id="path5446" class="st1" d="M146.2,93.9h-5.4V65.7h5.4V93.9z M149.1,101.3c2.5,0,4.6-2,4.6-4.6v-34
					c0-2.5-2.1-4.6-4.6-4.6h-11.1c-2.5,0-4.6,2.1-4.6,4.6v34c0,2.5,2,4.6,4.6,4.6H149.1z"/>
				<path id="path5448" class="st1" d="M179.3,93.9h-5.4V65.7h5.4V93.9z M182.1,101.3c2.5,0,4.6-2,4.6-4.6v-34
					c0-2.5-2.1-4.6-4.6-4.6h-15.6v43.1L182.1,101.3z"/>
				<path id="path5450" class="st1" d="M199.9,101.3h7.4V58.2h-7.4V101.3z"/>
				<g id="g5452" transform="translate(240.1631,101.3237)">
					<path id="path5454" class="st1" d="M0,0v-43.1h-7.4l-5.4,18.8v-18.8h-7.4V0h7.3l5.4-17.7V0H0z"/>
				</g>
				<g id="g5456" transform="translate(268.6172,83.5259)">
					<path id="path5458" class="st1" d="M0,0c2.5,0,4.6-2,4.6-4.6v-16.2c0-2.5-2.1-4.6-4.6-4.6h-11.1c-2.5,0-4.6,2.1-4.6,4.6v8.9
						l7.4,1.7v-7.7h5.4v10.5h-8.2c-2.5,0-4.6,2-4.6,4.6v16.1c0,2.5,2,4.6,4.6,4.6H0c2.5,0,4.6-2,4.6-4.6V4.5l-7.5-1.7v7.6h-5.4V0H0z
						"/>
				</g>
				<g id="g5460" transform="translate(300.2119,79.8311)">
					<path id="path5462" class="st1" d="M0,0l6.9-21.6h-7.5l-0.1,0.2L-6.2-3.7h-0.7v-17.9h-7.4v43.1h7.4V3.7h0.6l5.7,17.8h7.5L0,0z"
						/>
				</g>
				<path id="path5464" class="st1" d="M319.2,101.3h7.4V58.2h-7.4V101.3z"/>
			</g>
		</g>
	</g>
</g>
</svg>
