<?xml version="1.0" encoding="utf-8"?>
<!-- Generator: Adobe Illustrator 22.0.1, SVG Export Plug-In . SVG Version: 6.00 Build 0)  -->
<svg version="1.1"
	 id="svg5644" xmlns:cc="http://creativecommons.org/ns#" xmlns:dc="http://purl.org/dc/elements/1.1/" xmlns:rdf="http://www.w3.org/1999/02/22-rdf-syntax-ns#" xmlns:svg="http://www.w3.org/2000/svg"
	 xmlns="http://www.w3.org/2000/svg" xmlns:xlink="http://www.w3.org/1999/xlink" x="0px" y="0px" viewBox="0 0 36 29"
	 style="enable-background:new 0 0 36 29;" xml:space="preserve">
<style type="text/css">
	.st0{clip-path:url(#SVGID_2_);}
	.st1{fill:#FFFFFF;}
</style>
<g id="g5652" transform="matrix(1.3333333,0,0,-1.3333333,0,26.595067)">
	<g id="g5654">
		<g>
			<defs>
				<rect id="SVGID_1_" x="-4.5" y="-5.4" width="36" height="29"/>
			</defs>
			<clipPath id="SVGID_2_">
				<use xlink:href="#SVGID_1_"  style="overflow:visible;"/>
			</clipPath>
			<g id="g5656" class="st0">
				<g id="g5662" transform="translate(0,9.9229)">
					<path id="path5664" class="st1" d="M0-0.9C0-1.5,0.4-2,0.9-2h25.3C26.6-2,27-1.5,27-0.9c0,0.6-0.4,1.1-0.9,1.1H0.9
						C0.4,0.2,0-0.3,0-0.9"/>
				</g>
				<g id="g5666" transform="translate(1.1338,19.9463)">
					<path id="path5668" class="st1" d="M-0.3,0c-0.5,0-0.9-0.5-0.9-1.1c0-0.6,0.4-1.1,0.9-1.1H25c0.5,0,0.9,0.5,0.9,1.1
						C25.9-0.5,25.5,0,25,0L-0.3,0z"/>
				</g>
				<g id="g5670" transform="translate(0,0.9775)">
					<path id="path5672" class="st1" d="M0-1.7c0-0.6,0.4-1.1,0.9-1.1h25.3c0.5,0,0.9,0.5,0.9,1.1c0,0.6-0.4,1.1-0.9,1.1H0.9
						C0.4-0.6,0-1.1,0-1.7"/>
				</g>
			</g>
		</g>
	</g>
</g>
</svg>
