<?xml version="1.0" encoding="UTF-8" standalone="no"?>
<svg
   xmlns:dc="http://purl.org/dc/elements/1.1/"
   xmlns:cc="http://creativecommons.org/ns#"
   xmlns:rdf="http://www.w3.org/1999/02/22-rdf-syntax-ns#"
   xmlns:svg="http://www.w3.org/2000/svg"
   xmlns="http://www.w3.org/2000/svg"
   viewBox="0 0 34.557999 34.5592"
   xml:space="preserve"
   id="svg5618"
   version="1.1"><metadata
     id="metadata5624"><rdf:RDF><cc:Work
         rdf:about=""><dc:format>image/svg+xml</dc:format><dc:type
           rdf:resource="http://purl.org/dc/dcmitype/StillImage" /><dc:title></dc:title></cc:Work></rdf:RDF></metadata><defs
     id="defs5622"><clipPath
       id="clipPath5634"
       clipPathUnits="userSpaceOnUse"><path
         id="path5632"
         d="M 0,25.919 H 25.918 V 0 H 0 Z" /></clipPath></defs><g
     transform="matrix(1.3333333,0,0,-1.3333333,0,34.5592)"
     id="g5626"><g
       id="g5628"><g
         clip-path="url(#clipPath5634)"
         id="g5630"><g
           transform="translate(0.3662,1.749)"
           id="g5636"><path
             id="path5638"
             style="fill:#fff;fill-opacity:1;fill-rule:nonzero;stroke:none"
             d="m 0,0 c -0.441,-0.441 -0.491,-1.113 -0.111,-1.494 0.38,-0.379 1.052,-0.33 1.493,0.111 l 23.804,23.805 c 0.441,0.441 0.491,1.113 0.111,1.493 -0.38,0.38 -1.052,0.33 -1.493,-0.111 z" /></g><g
           transform="translate(0.2554,25.6641)"
           id="g5640"><path
             id="path5642"
             style="fill:#fff;fill-opacity:1;fill-rule:nonzero;stroke:none"
             d="m 0,0 c -0.38,-0.381 -0.33,-1.052 0.111,-1.493 l 23.804,-23.805 c 0.441,-0.441 1.113,-0.491 1.493,-0.11 0.38,0.38 0.33,1.051 -0.111,1.492 L 1.493,-0.111 C 1.052,0.33 0.38,0.38 0,0" /></g></g></g></g></svg>