<?xml version="1.0" encoding="UTF-8" standalone="no"?>
<svg
   xmlns:dc="http://purl.org/dc/elements/1.1/"
   xmlns:cc="http://creativecommons.org/ns#"
   xmlns:rdf="http://www.w3.org/1999/02/22-rdf-syntax-ns#"
   xmlns:svg="http://www.w3.org/2000/svg"
   xmlns="http://www.w3.org/2000/svg"
   viewBox="0 3.5 36 19"
   width="36"
   height="19"
   xml:space="preserve"
   id="svg5644"
   version="1.1"><metadata
     id="metadata5650"><rdf:RDF><cc:Work
         rdf:about=""><dc:format>image/svg+xml</dc:format><dc:type
           rdf:resource="http://purl.org/dc/dcmitype/StillImage" /><dc:title></dc:title></cc:Work></rdf:RDF></metadata><defs
     id="defs5648"><clipPath
       id="clipPath5660"
       clipPathUnits="userSpaceOnUse"><path
         id="path5658"
         d="M 0,19.946 H 35.933 V 0 H 0 Z" /></clipPath></defs><g
     transform="matrix(1.3333333,0,0,-1.3333333,0,26.595067)"
     id="g5652"><g
       id="g5654"><g
         clip-path="url(#clipPath5660)"
         id="g5656"><g
           transform="translate(0,9.9229)"
           id="g5662"><path
             id="path5664"
             style="fill:#ffffff;fill-opacity:1;fill-rule:nonzero;stroke:none"
             d="m 0,0 c 0,-0.538 0.51,-0.978 1.134,-0.978 h 33.665 c 0.624,0 1.134,0.439 1.134,0.978 0,0.537 -0.51,0.978 -1.134,0.978 H 1.134 C 0.51,0.977 0,0.537 0,0" /></g><g
           transform="translate(1.1338,19.9463)"
           id="g5666"><path
             id="path5668"
             style="fill:#ffffff;fill-opacity:1;fill-rule:nonzero;stroke:none"
             d="m 0,0 c -0.624,0 -1.134,-0.439 -1.134,-0.978 0,-0.538 0.51,-0.977 1.134,-0.977 h 33.665 c 0.624,0 1.134,0.438 1.134,0.977 0,0.538 -0.51,0.978 -1.134,0.978 z" /></g><g
           transform="translate(0,0.9775)"
           id="g5670"><path
             id="path5672"
             style="fill:#ffffff;fill-opacity:1;fill-rule:nonzero;stroke:none"
             d="m 0,0 c 0,-0.537 0.51,-0.978 1.134,-0.978 h 33.665 c 0.624,0 1.134,0.44 1.134,0.978 0,0.537 -0.51,0.978 -1.134,0.978 H 1.134 C 0.51,0.978 0,0.537 0,0" /></g></g></g></g></svg>