<?xml version="1.0" encoding="utf-8"?>
<!-- Generator: Adobe Illustrator 22.0.1, SVG Export Plug-In . SVG Version: 6.00 Build 0)  -->
<svg version="1.1" id="Layer_1" xmlns="http://www.w3.org/2000/svg" xmlns:xlink="http://www.w3.org/1999/xlink" x="0px" y="0px"
	 viewBox="0 0 45 12" style="enable-background:new 0 0 45 12;" xml:space="preserve">
<style type="text/css">
	.st0{fill:#826550;}
</style>
<path class="st0" d="M22.5,7.6c1.2,1.6,3.6,4.1,8.8,4.4C38.4,12.3,45,7.1,45,5.2c-2.8,2.3-7.4,2.5-9.9,1.6c-3.8-1.4-3.1-4.2-5.9-6
	c-1.6-1-3.8-1.1-5.7,0c-0.3,0.2-0.7,0.5-1,0.7c-0.3-0.3-0.7-0.6-1-0.7c-1.9-1.1-4.1-1-5.7,0c-2.8,1.9-2.1,4.6-5.9,6
	C7.4,7.7,2.8,7.5,0,5.2c0,2,6.5,7.1,13.7,6.8C18.9,11.8,21.3,9.2,22.5,7.6L22.5,7.6z"/>
</svg>
