<?xml version="1.0" encoding="utf-8"?>
<!-- Generator: Adobe Illustrator 22.0.1, SVG Export Plug-In . SVG Version: 6.00 Build 0)  -->
<svg version="1.1" id="Layer_1" xmlns="http://www.w3.org/2000/svg" xmlns:xlink="http://www.w3.org/1999/xlink" x="0px" y="0px"
	 viewBox="0 0 21 20" style="enable-background:new 0 0 21 20;" xml:space="preserve">
<style type="text/css">
	.st0{fill:#826550;}
</style>
<g id="Page-1">
	<g id="Core" transform="translate(-127.000000, -128.000000)">
		<g id="content-cut" transform="translate(127.500000, 128.000000)">
			<path id="Shape" class="st0" d="M7.5,4c0-2.2-1.8-4-4-4s-4,1.8-4,4s1.8,4,4,4c0.6,0,1.1-0.1,1.6-0.4L7.5,10l-2.4,2.4
				c-0.5-0.3-1-0.4-1.6-0.4c-2.2,0-4,1.8-4,4s1.8,4,4,4s4-1.8,4-4c0-0.6-0.1-1.1-0.4-1.6L9.5,12l7,7h4L7.1,5.6
				C7.4,5.1,7.5,4.6,7.5,4L7.5,4z M3.5,6c-1.1,0-2-0.9-2-2s0.9-2,2-2s2,0.9,2,2S4.6,6,3.5,6L3.5,6z M3.5,18c-1.1,0-2-0.9-2-2
				s0.9-2,2-2s2,0.9,2,2S4.6,18,3.5,18L3.5,18z M9.5,9.5C9.8,9.5,10,9.7,10,10s-0.2,0.5-0.5,0.5S9,10.3,9,10S9.2,9.5,9.5,9.5
				L9.5,9.5z M20.5,1h-4l-6,6l2,2L20.5,1L20.5,1z"/>
		</g>
	</g>
</g>
</svg>
