<?xml version="1.0" encoding="utf-8"?>
<!-- Generator: Adobe Illustrator 22.0.1, SVG Export Plug-In . SVG Version: 6.00 Build 0)  -->
<svg version="1.1" id="Layer_1" xmlns="http://www.w3.org/2000/svg" xmlns:xlink="http://www.w3.org/1999/xlink" x="0px" y="0px"
	 viewBox="0 0 23 21" style="enable-background:new 0 0 23 21;" xml:space="preserve">
<style type="text/css">
	.st0{fill:#826550;}
</style>
<path class="st0" d="M22.8,0h-0.1c-1,3.3-1.4,7.2-4.2,8.7C18,7.3,16.6,6.6,15.2,6c-0.9-0.4-2-1.1-2.9-1.1c-0.2,0-0.4,0-0.6,0.1
	C11.3,5,11.1,5,10.9,5C9.9,5,8.9,5.6,7.9,6C6.4,6.7,5.1,7.3,4.6,8.7C1.7,7.2,1.5,3.2,0.4,0H0.3C0.1,0.3,0.1,0.7,0,1
	c0,0.8,0.2,9.1,0.8,12.1c0.5,2.7,2.7,4.6,4.8,5.8c1.5,0.9,3.8,2.1,5.9,2.1c2,0,4.4-1.2,5.9-2.1c2.1-1.3,4.3-3.2,4.8-5.8
	C22.8,10.1,23,1.8,23,1C23,0.7,22.9,0.3,22.8,0z M16.5,11.9c-0.1,0.7-0.7,1.5-1.5,1.5c-1.4,0.1-2-1.9-3.6-1.9
	c-1.5,0-2.2,1.9-3.6,1.9c-0.7,0-1.4-0.8-1.5-1.5c-0.1-0.8,0.3-2,0.7-2.4C7.7,9,8.5,9.1,9.3,9c0.9-0.1,1.8-0.4,2.2-0.8l0,0
	C12,8.7,12.8,8.9,13.7,9c0.8,0.1,1.6,0.1,2.1,0.5C16.3,10,16.7,11.1,16.5,11.9z"/>
</svg>
