<?xml version="1.0" encoding="utf-8"?>
<!-- Generator: Adobe Illustrator 22.0.1, SVG Export Plug-In . SVG Version: 6.00 Build 0)  -->
<svg version="1.1" id="Layer_1" xmlns="http://www.w3.org/2000/svg" fill="#ffffff" xmlns:xlink="http://www.w3.org/1999/xlink" x="0px" y="0px"
	 viewBox="0 0 23 27.6" style="enable-background:new 0 0 23 27.6;" xml:space="preserve">
<path d="M21.1,24.6c1.3-1.6,1.9-3.4,1.9-5.5c0-3.4-2.6-5.8-6.3-6.7c1.6-0.4,2.8-0.9,3.6-2c0.8-1.1,1.2-2.4,1.2-3.7
	c0-1.9-0.7-3-2.1-4.5C18,0.7,15.9,0,12.9,0H0v27.6h13.5C17.7,27.6,19.8,26.2,21.1,24.6z M7.2,5.5h3.2c1.9,0,2.9,0.7,2.9,2.2
	c0,0.6-0.2,1.6-0.6,2.1c-0.4,0.5-1.1,0.7-2.1,0.7H7.2L7.2,5.5L7.2,5.5z M7.1,21.4v-5h3.9c1.3,0,2.1,0.3,2.6,0.8
	c0.5,0.5,0.7,1.1,0.7,1.7c0,0.6-0.2,1.2-0.7,1.7c-0.5,0.5-1.3,0.8-2.3,0.8H7.1z"/>
</svg>
