<svg xmlns="http://www.w3.org/2000/svg" xmlns:xlink="http://www.w3.org/1999/xlink" width="15" height="15" viewBox="0 0 15 15"><defs><path id="5luia" d="M725.87 314.23c-.52 0-.44.23-.72.27-.28.03.05-.12-.79.04-.84.16-1.14 1.23-1.18 1.62-.04.4-.05 1.5-.02 2.1.08.35-.2.35-.2.35-.5-.03-.28 1.52-.28 1.52.07.38-.03.57.72.87.36 1 1.29 1.52 1.29 1.52s0 .62.02 1.07c-.08-.03.25 1.17-2.07 1.5-2.32.34-2.76 1.08-3.2 1.5-.44.4-.42 2.4-.42 2.4L734 329s-.11-2-.55-2.42c-.43-.4-.91-1.15-3.23-1.48-2.26-.33-1.89-1.51-1.9-1.58l.02-.94s.8-.62 1.15-1.61c.56-.35.77-.4.86-.8 0 0 .17-1.57-.36-1.56 0 0-.25.08-.17-.27.08-.36.05-1.47.01-1.86-.04-.4.02-1.53-.82-1.68-.57-.11-.65 0-.93-.04s-.62-.76-1.14-.76z"/></defs><g><g transform="translate(-719 -314)"><use fill="#d1d1d1" xlink:href="#5luia"/><use xlink:href="#5luia"/></g></g></svg>